<svg width="64" height="64" viewBox="0 0 64 64" fill="none" xmlns="http://www.w3.org/2000/svg">
<path d="M32 64C49.6731 64 64 49.6731 64 32C64 14.3269 49.6731 0 32 0C14.3269 0 0 14.3269 0 32C0 49.6731 14.3269 64 32 64Z" fill="#16449A"/>
<path d="M26.4006 10.7525L26.3677 10.752C15.5987 10.752 6.91193 20.3437 6.91193 32.128C6.91193 43.9122 15.5987 53.504 26.3677 53.504L26.4048 53.5033L26.4874 53.4969L26.5814 53.4814L26.6864 53.4531L26.8003 53.4081L26.9183 53.3434L27.0336 53.2579L27.1383 53.1543L27.226 53.0386L27.2931 52.9185L27.34 52.8014L27.3694 52.6926L27.3853 52.5948L27.3914 52.5089L27.3908 52.4342L27.3858 52.3697L27.3389 52.1863L27.3227 52.1262L27.3094 52.0816L27.3015 52.0583L27.2901 52.03L27.2822 52.0138L27.2688 51.9902L27.2095 51.8978L27.1829 51.8592L27.127 51.792L26.9909 51.6497L26.8623 51.5167L26.671 51.3165L26.4905 51.1251C26.4601 51.0926 26.4295 51.0598 26.3987 51.0267L26.2114 50.8241L26.0194 50.6136L25.8224 50.3948C25.7892 50.3577 25.7557 50.3201 25.722 50.2822L25.5172 50.0502C24.3113 48.6755 23.1138 47.1573 21.9959 45.5231L21.9016 45.3847L21.7153 45.1079C21.6229 44.9695 21.5317 44.8312 21.4416 44.6929L21.2631 44.4164C18.5796 40.2236 16.9921 36.0816 16.9583 32.2541L16.9577 32.1263C16.9586 28.1399 18.6568 23.8075 21.5323 19.4284L21.7154 19.1517L21.9017 18.875C21.933 18.8289 21.9644 18.7827 21.996 18.7366C23.114 17.1019 24.3115 15.5834 25.5186 14.2066L25.6216 14.0896L25.8235 13.8622C25.8567 13.8251 25.8897 13.7883 25.9225 13.7518L26.1168 13.5372L26.3064 13.3305C26.3377 13.2967 26.3687 13.2632 26.3996 13.23L26.5826 13.0344L26.7273 12.8815L26.9351 12.6647L27.0825 12.512L27.1109 12.4818L27.1471 12.4407L27.1903 12.3871L27.2034 12.3686L27.228 12.3296L27.2731 12.2547L27.3006 12.2054L27.3092 12.1876L27.3169 12.1689L27.324 12.1482L27.3308 12.1243L27.3413 12.0795L27.3531 12.0205L27.3914 11.804L27.3918 11.7709L27.3888 11.698L27.3792 11.6158L27.3604 11.5244L27.3297 11.4248L27.2844 11.3194L27.2228 11.2125L27.145 11.1092L27.0533 11.0153L26.9521 10.9351L26.847 10.871L26.7432 10.8233L26.6449 10.7902L26.5544 10.7691L26.473 10.7574L26.4006 10.7525ZM23.8258 13.0049L23.8527 13.0008L23.9787 12.8565C22.7206 14.2913 21.4732 15.8731 20.3055 17.5804C16.9721 22.4543 14.9515 27.3397 14.9104 31.9852L14.9097 32.1278C14.9092 36.6301 16.7782 41.3605 19.9078 46.0884L20.1051 46.3839C20.1714 46.4824 20.2382 46.5809 20.3056 46.6794L20.4653 46.9114C21.5331 48.4526 22.6645 49.8895 23.8063 51.2045L23.855 51.2603L23.7979 51.2515C15.4337 49.8855 8.95993 41.8613 8.95993 32.128C8.95993 22.3947 15.4337 14.3704 23.8258 13.0049Z" fill="white"/>
<path d="M37.8554 10.7525L37.8883 10.752C48.6573 10.752 57.3441 20.3437 57.3441 32.128C57.3441 43.9122 48.6573 53.504 37.8883 53.504L37.8511 53.5033L37.7686 53.4969L37.6746 53.4814L37.5696 53.4531L37.4557 53.4081L37.3377 53.3434L37.2224 53.2579L37.1177 53.1543L37.03 53.0386L36.9629 52.9185L36.916 52.8014L36.8865 52.6926L36.8707 52.5948L36.8646 52.5089L36.8652 52.4342L36.8701 52.3697L36.917 52.1863L36.9333 52.1262L36.9466 52.0816L36.9544 52.0583L36.9659 52.03L36.9738 52.0138L36.9872 51.9902L37.0465 51.8978L37.0731 51.8592L37.129 51.792L37.2651 51.6497L37.3937 51.5167L37.585 51.3165L37.7654 51.1251C37.7959 51.0926 37.8265 51.0598 37.8573 51.0267L38.0446 50.8241L38.2366 50.6136L38.4335 50.3948C38.4668 50.3577 38.5003 50.3201 38.534 50.2822L38.7388 50.0502C39.9447 48.6755 41.1422 47.1573 42.26 45.5231L42.3544 45.3847L42.5407 45.1079C42.6331 44.9695 42.7243 44.8312 42.8144 44.6929L42.9929 44.4164C45.6764 40.2236 47.2639 36.0816 47.2977 32.2541L47.2983 32.1263C47.2973 28.1399 45.5992 23.8075 42.7237 19.4284L42.5406 19.1517L42.3543 18.875C42.323 18.8289 42.2916 18.7827 42.26 18.7366C41.142 17.1019 39.9444 15.5834 38.7373 14.2066L38.6344 14.0896L38.4325 13.8622C38.3993 13.8251 38.3663 13.7883 38.3335 13.7518L38.1391 13.5372L37.9495 13.3305C37.9183 13.2967 37.8873 13.2632 37.8564 13.23L37.6734 13.0344L37.5287 12.8815L37.3208 12.6647L37.1735 12.512L37.1451 12.4818L37.1089 12.4407L37.0657 12.3871L37.0525 12.3686L37.028 12.3296L36.9828 12.2547L36.9554 12.2054L36.9468 12.1876L36.9391 12.1689L36.932 12.1482L36.9252 12.1243L36.9147 12.0795L36.9029 12.0205L36.8646 11.804L36.8642 11.7709L36.8671 11.698L36.8768 11.6158L36.8956 11.5244L36.9263 11.4248L36.9716 11.3194L37.0332 11.2125L37.111 11.1092L37.2027 11.0153L37.3039 10.9351L37.409 10.871L37.5127 10.8233L37.6111 10.7902L37.7015 10.7691L37.783 10.7574L37.8554 10.7525ZM40.4301 13.0049L40.4033 13.0008L40.2773 12.8565C41.5353 14.2913 42.7828 15.8731 43.9504 17.5804C47.2839 22.4543 49.3045 27.3397 49.3456 31.9852L49.3463 32.1278C49.3468 36.6301 47.4777 41.3605 44.3481 46.0884L44.1509 46.3839C44.0846 46.4824 44.0178 46.5809 43.9504 46.6794L43.7907 46.9114C42.7228 48.4526 41.5915 49.8895 40.4497 51.2045L40.401 51.2603L40.4581 51.2515C48.8223 49.8855 55.2961 41.8613 55.2961 32.128C55.2961 22.3947 48.8223 14.3704 40.4301 13.0049Z" fill="white"/>
<path d="M27.9407 21.3043H24.0663C23.7863 21.3043 23.5594 21.5313 23.5594 21.8112C23.5594 21.895 23.5802 21.9776 23.6199 22.0514L27.7041 29.6415C27.7322 29.6938 27.7126 29.759 27.6604 29.7871C27.6447 29.7956 27.6272 29.8 27.6094 29.8H24.5626C24.2826 29.8 24.0557 30.0269 24.0557 30.3069V32.9744C24.0557 33.2544 24.2826 33.4813 24.5626 33.4813H29.2755C29.3348 33.4813 29.383 33.5295 29.383 33.5888V35.2041C29.383 35.2634 29.3348 35.3116 29.2755 35.3116H24.5626C24.2826 35.3116 24.0557 35.5385 24.0557 35.8185V38.2447C24.0557 38.5247 24.2826 38.7516 24.5626 38.7516H29.2755C29.3348 38.7516 29.383 38.7998 29.383 38.8591V42.4448C29.383 42.7247 29.6099 42.9517 29.8899 42.9517H34.137C34.4169 42.9517 34.6439 42.7247 34.6439 42.4448V38.8591C34.6439 38.7998 34.692 38.7516 34.7514 38.7516H39.5692C39.8491 38.7516 40.076 38.5247 40.076 38.2447V35.8185C40.076 35.5385 39.8491 35.3116 39.5692 35.3116H34.7514C34.692 35.3116 34.6439 35.2634 34.6439 35.2041V33.5888C34.6439 33.5295 34.692 33.4813 34.7514 33.4813H39.5692C39.8491 33.4813 40.076 33.2544 40.076 32.9744V30.3069C40.076 30.0269 39.8491 29.8 39.5692 29.8H36.5459C36.4866 29.8 36.4384 29.7518 36.4384 29.6925C36.4384 29.6743 36.443 29.6565 36.4517 29.6406L40.6283 22.0557C40.7633 21.8105 40.674 21.5022 40.4288 21.3672C40.3539 21.3259 40.2698 21.3043 40.1843 21.3043H36.2092C36.0231 21.3043 35.8519 21.4063 35.7633 21.5701L32.175 28.2046C32.1467 28.2569 32.0815 28.2763 32.0292 28.248C32.0109 28.2381 31.9958 28.2231 31.9859 28.2047L28.3863 21.5695C28.2976 21.4061 28.1266 21.3043 27.9407 21.3043Z" fill="white"/>
</svg>
