<svg width="64" height="64" viewBox="0 0 64 64" fill="none" xmlns="http://www.w3.org/2000/svg">
<mask id="mask0_6_2" style="mask-type:alpha" maskUnits="userSpaceOnUse" x="0" y="0" width="64" height="64">
<path d="M0 0H64.0001V64H0V0Z" fill="white"/>
</mask>
<g mask="url(#mask0_6_2)">
<path fill-rule="evenodd" clip-rule="evenodd" d="M32.0001 0C49.6735 0 64.0001 14.3266 64.0001 32.0001C64.0001 49.6721 49.6735 64.0001 32.0001 64.0001C14.3266 64.0001 0 49.6721 0 32.0001C0 14.3266 14.3266 0 32.0001 0Z" fill="#2775CA"/>
</g>
<path fill-rule="evenodd" clip-rule="evenodd" d="M26.0015 54.2484C26.0015 55.0011 25.412 55.4288 24.684 55.2015C15.0088 52.115 7.99384 43.0426 7.99384 32.3378C7.99384 21.6335 15.0088 12.5607 24.684 9.47417C25.412 9.24835 26.0015 9.67453 26.0015 10.4273V12.2854C26.0015 12.7865 25.6131 13.3764 25.1357 13.5396C17.4808 16.3505 11.9971 23.7044 11.9971 32.3251C11.9971 40.9459 17.4808 48.3011 25.1357 51.1106C25.6131 51.2866 26.0015 51.8633 26.0015 52.3662V54.2484Z" fill="white"/>
<path fill-rule="evenodd" clip-rule="evenodd" d="M33.9951 47.3338C33.9951 47.8865 33.5434 48.3381 32.9914 48.3381H30.9958C30.4438 48.3381 29.9922 47.8865 29.9922 47.3338V44.1719C25.6249 43.5825 23.4921 41.1348 22.9147 37.8097C22.814 37.2443 23.2656 36.7301 23.8431 36.7301H26.1271C26.6038 36.7301 27.0056 37.0694 27.106 37.5454C27.5329 39.5283 28.6747 41.0468 32.1754 41.0468C34.7605 41.0468 36.5933 39.6036 36.5933 37.4461C36.5933 35.2868 35.5136 34.4716 31.7238 33.8436C26.1271 33.0908 23.4794 31.3963 23.4794 27.0043C23.4794 23.6163 26.0398 20.9814 30.0049 20.4163V17.3166C30.0049 16.7643 30.4569 16.3123 31.0085 16.3123H33.0042C33.5562 16.3123 34.0078 16.7643 34.0078 17.3166V20.5043C37.2329 21.0824 39.2784 22.9134 39.9438 25.9501C40.0689 26.5283 39.6173 27.0668 39.0278 27.0668H36.9191C36.4674 27.0668 36.0911 26.7654 35.9533 26.3265C35.3885 24.3948 34.0078 23.5668 31.6107 23.5668C28.9631 23.5668 27.5951 24.8465 27.5951 26.6406C27.5951 28.5356 28.3736 29.4886 32.4398 30.0796C37.9354 30.8323 40.7722 32.4006 40.7722 37.0825C40.7722 40.6334 38.1365 43.5072 34.0078 44.1719V47.3338H33.9951Z" fill="white"/>
<path fill-rule="evenodd" clip-rule="evenodd" d="M39.3162 55.2014C38.589 55.4287 37.9988 55.0011 37.9988 54.2483V52.3916C37.9988 51.8392 38.3377 51.325 38.8646 51.136C46.5195 48.325 52.0032 40.9712 52.0032 32.3505C52.0032 23.7297 46.5195 16.3759 38.8646 13.565C38.3879 13.389 37.9988 12.8123 37.9988 12.3093V10.4526C37.9988 9.69988 38.589 9.26097 39.3162 9.49806C48.9915 12.5864 56.0064 21.6588 56.0064 32.3632C55.9944 43.0421 48.9915 52.1021 39.3162 55.2014Z" fill="white"/>
</svg>
