<svg xmlns="http://www.w3.org/2000/svg" viewBox="0 0 51.6 51.6"><defs><style>.a{fill:#ff2e4b;}.b{fill:#fff;fill-rule:evenodd;}</style></defs><path class="a" d="M25.8,51.6A25.8,25.8,0,1,0,0,25.8,25.8,25.8,0,0,0,25.8,51.6Z" transform="translate(0 0)"/><path class="b" d="M21.3,8.7h0c-8.7,0-15.7,7.7-15.7,17.2s7,17.2,15.7,17.2h.4l.1-.1.1-.1.1-.1.1-.1.1-.1v-.7h0v-.1h0v-.1l-.1-.1-.1-.1-.2-.2-.1-.2-.1-.1h-.5l-.1-.2-.2-.2-.1-.1-.2-.2a27.55,27.55,0,0,1-2.8-3.7l-.1-.1-.2-.2c-.1-.1-.1-.2-.2-.3l-.1-.2A19.49,19.49,0,0,1,13.6,26v-.1c0-3.2,1.4-6.7,3.7-10.2l.1-.2.2-.2.1-.1c.9-1.3,1.9-2.5,2.8-3.7l.1-.1.2-.2.1-.1.2-.2.2-.2.1-.1.1-.2.1-.1.2-.2.1-.1h0V9.9h0V9.7h0V9.2L22,9h-.1l-.1-.1-.1-.1-.1-.1h-.3Zm-2.1,1.8h0a35.83,35.83,0,0,0-2.8,3.7c-2.7,3.9-4.3,7.9-4.4,11.6v.1c0,3.6,1.5,7.4,4,11.3l.2.2c.1.1.1.2.2.2l.1.2c.9,1.2,1.8,2.4,2.7,3.5h0c-6.7-1.1-12-7.6-12-15.4S12.4,11.6,19.2,10.5ZM30.5,8.7h0c8.7,0,15.7,7.7,15.7,17.2s-7,17.2-15.7,17.2h-.4V43l-.1-.1-.1-.1-.1-.1-.1-.1v-.7h0v-.1h0v-.1l.1-.1.1-.1.2-.2.1-.2.1-.1.2-.2.2-.2.2-.2.1-.1.2-.2A27.55,27.55,0,0,0,34,36.4l.1-.1.2-.2c.1-.1.1-.2.2-.3l.1-.2a19.49,19.49,0,0,0,3.5-9.8v-.1c0-3.2-1.4-6.7-3.7-10.2l-.1-.2-.2-.2L34,15c-.9-1.3-1.9-2.5-2.8-3.7l-.1-.1H31l-.1-.1-.2-.2-.2-.2-.1-.1-.1-.2-.1-.1-.2-.2h0V10h0V9.8h0V9.2L29.9,9l.1-.1.1-.1.1-.1h.3Zm2.1,1.8h0a35.83,35.83,0,0,1,2.8,3.7c2.7,3.9,4.3,7.9,4.4,11.6v.1c0,3.6-1.5,7.4-4,11.3l-.2.2c-.1.1-.1.2-.2.2l-.1.2c-.9,1.2-1.8,2.4-2.7,3.5h0c6.7-1.1,12-7.6,12-15.4S39.4,11.6,32.6,10.5ZM19.4,17.2h3.1a.76.76,0,0,1,.4.2l2.9,5.4h.1l2.9-5.4a.52.52,0,0,1,.4-.2h3.2c.1,0,.1,0,.2.1a.48.48,0,0,1,.2.6L29.4,24h0a.1.1,0,0,0,.1.1h2.4a.43.43,0,0,1,.4.4v2.2a.43.43,0,0,1-.4.4H28a.1.1,0,0,0-.1.1v1.3a.1.1,0,0,0,.1.1h3.9a.43.43,0,0,1,.4.4v2a.43.43,0,0,1-.4.4H28a.1.1,0,0,0-.1.1v2.9a.43.43,0,0,1-.4.4H24.1a.43.43,0,0,1-.4-.4V31.5a.1.1,0,0,0-.1-.1H19.8a.43.43,0,0,1-.4-.4V29a.43.43,0,0,1,.4-.4h3.8a.1.1,0,0,0,.1-.1V27.2a.1.1,0,0,0-.1-.1H19.8a.43.43,0,0,1-.4-.4V24.5a.43.43,0,0,1,.4-.4h2.5s.1-.1,0-.1L19,17.8v-.2A.43.43,0,0,1,19.4,17.2Z" transform="translate(0 0)"/></svg>